<svg id="Capa_1" enable-background="new 0 0 512 512" height="512" viewBox="0 0 512 512" width="512" xmlns="http://www.w3.org/2000/svg"><g><g><path d="m80.578 227.5h23.922v-120h-77v15.375l13.789 72.135c3.604 18.854 20.094 32.49 39.289 32.49z" fill="#cdd2e1"/></g><g><path d="m385.374 324.5h-280.874v-217h380l-61.058 189.28c-5.33 16.522-20.708 27.72-38.068 27.72z" fill="#ff9696"/></g><g><path d="m220.963 284.5v-177h-116.463v217h156.463c-22.092 0-40-17.909-40-40z" fill="#ff7d81"/></g><g><g><g><ellipse cx="203.855" cy="233.063" fill="#fff" rx="29.355" ry="23.377"/></g><g><ellipse cx="362.968" cy="233.063" fill="#fff" rx="29.355" ry="23.377"/></g></g><g><path d="m220.963 218.06c-4.142 0-7.5-3.358-7.5-7.5v-12c0-4.142 3.358-7.5 7.5-7.5s7.5 3.358 7.5 7.5v12c0 4.142-3.358 7.5-7.5 7.5z"/></g><g><path d="m345.86 218.06c-4.142 0-7.5-3.358-7.5-7.5v-12c0-4.142 3.358-7.5 7.5-7.5s7.5 3.358 7.5 7.5v12c0 4.142-3.358 7.5-7.5 7.5z"/></g><g><path d="m283.412 225.204c-8.478 0-16.54-3.672-22.119-10.074-2.721-3.123-2.396-7.86.727-10.582s7.86-2.396 10.582.727c2.729 3.132 6.669 4.928 10.81 4.928s8.08-1.796 10.81-4.928c2.721-3.124 7.458-3.448 10.582-.727 3.123 2.721 3.448 7.458.727 10.582-5.58 6.402-13.641 10.074-22.119 10.074z"/></g></g><g><path d="m474.5 147.5h-370v-60h370c16.569 0 30 13.431 30 30 0 16.569-13.431 30-30 30z" fill="#fff48f"/></g><g><path d="m190.963 117.5c0-16.569 13.431-30 30-30h-116.463v60h116.463c-16.569 0-30-13.431-30-30z" fill="#ffee6e"/></g><g><path d="m27.5 87.5c-11.046 0-20 8.954-20 20s8.954 20 20 20h77v-40z" fill="#dce1eb"/></g><g><g><path d="m484.5 444.5h-280c-66.274 0-120-53.726-120-120v-237c0-22.091-17.909-40-40-40h-17c-11.046 0-20-8.954-20-20 0-11.046 8.954-20 20-20h17c44.183 0 80 35.817 80 80v237c0 44.183 35.817 80 80 80h280c11.046 0 20 8.954 20 20 0 11.046-8.954 20-20 20z" fill="#e9edf5"/></g></g><g><path d="m274.5 424.5c0-11.046 8.954-20 20-20h-90c-44.081 0-79.827-35.653-79.992-79.695 0 0-.008-.001-.008-.001 0 11.046-8.954 20-20 20-11.011 0-19.94-8.9-19.995-19.899.219 66.087 53.856 119.595 119.995 119.595h90c-11.046 0-20-8.954-20-20z" fill="#dce1eb"/></g><g><circle cx="174.5" cy="444.5" fill="#7e8596" r="60"/></g><g><path d="m174.5 384.5c-33.137 0-60 26.863-60 60s26.863 60 60 60c-11.046 0-20-8.954-20-20s8.954-20 20-20v-40c-11.046 0-20-8.954-20-20s8.954-20 20-20z" fill="#707789"/></g><g><circle cx="174.5" cy="444.5" fill="#636978" r="20"/></g><g><circle cx="414.5" cy="444.5" fill="#7e8596" r="60"/></g><g><path d="m414.5 384.5c-33.137 0-60 26.863-60 60s26.863 60 60 60c-11.046 0-20-8.954-20-20s8.954-20 20-20v-40c-11.046 0-20-8.954-20-20s8.954-20 20-20z" fill="#707789"/></g><g><circle cx="414.5" cy="444.5" fill="#636978" r="20"/></g><g><path d="m484.5 397h-22.095c-12.238-12.342-29.192-20-47.905-20s-35.667 7.658-47.905 20h-144.19c-12.238-12.342-29.192-20-47.905-20-6.037 0-11.887.809-17.459 2.302-14.054-12.163-22.776-28.971-24.653-47.302h252.985c20.688 0 38.855-13.229 45.206-32.917l46.51-144.182c19.474-1.337 34.911-17.595 34.911-37.401 0-20.678-16.822-37.5-37.5-37.5h-342.825c-3.817-44.75-41.454-80-87.175-80h-17c-15.164 0-27.5 12.336-27.5 27.5s12.336 27.5 27.5 27.5h17c15.339 0 28.221 10.685 31.617 25h-48.617c-15.164 0-27.5 12.336-27.5 27.5 0 13.308 9.503 24.436 22.079 26.961l11.844 61.958c4.048 21.175 21.867 36.84 43.078 38.437v34.644c0 4.142 3.358 7.5 7.5 7.5s7.5-3.358 7.5-7.5v-182c-.001-26.191-21.31-47.5-47.501-47.5h-17c-6.893 0-12.5-5.607-12.5-12.5s5.607-12.5 12.5-12.5h17c39.977 0 72.5 32.523 72.5 72.5v237c0 23.07 8.911 44.746 24.763 60.998-7.375 4.108-13.909 9.55-19.26 16.01-19.471-20.764-30.503-48.396-30.503-77.008v-25c0-4.142-3.358-7.5-7.5-7.5s-7.5 3.358-7.5 7.5v25c0 33.65 13.465 66.104 37.107 89.903-4.538 9.068-7.107 19.285-7.107 30.097 0 37.22 30.28 67.5 67.5 67.5 34.684 0 63.329-26.298 67.073-60h105.853c3.744 33.702 32.39 60 67.073 60s63.329-26.298 67.073-60h2.927c15.164 0 27.5-12.336 27.5-27.5s-12.335-27.5-27.499-27.5zm-469.5-289.5c0-6.893 5.607-12.5 12.5-12.5h49.5v25h-49.5c-6.893 0-12.5-5.607-12.5-12.5zm33.656 86.102-11.202-58.602h39.546v84.795c-14.012-1.55-25.647-12.083-28.344-26.193zm448.344-76.102c0 12.407-10.093 22.5-22.5 22.5h-113.64c-4.142 0-7.5 3.358-7.5 7.5s3.358 7.5 7.5 7.5h100.437l-44.993 139.478c-4.346 13.471-16.775 22.522-30.93 22.522h-253.374v-162h198.86c4.142 0 7.5-3.358 7.5-7.5s-3.358-7.5-7.5-7.5h-198.86v-45h342.5c12.407 0 22.5 10.093 22.5 22.5zm-141.639 294.5c-4.177 7.57-6.937 16.022-7.935 25h-105.853c-.997-8.978-3.758-17.43-7.935-25zm-180.861 85c-28.949 0-52.5-23.551-52.5-52.5s23.551-52.5 52.5-52.5 52.5 23.551 52.5 52.5-23.551 52.5-52.5 52.5zm240 0c-28.949 0-52.5-23.551-52.5-52.5s23.551-52.5 52.5-52.5 52.5 23.551 52.5 52.5-23.551 52.5-52.5 52.5zm70-60h-2.927c-.997-8.978-3.758-17.43-7.935-25h10.862c6.893 0 12.5 5.607 12.5 12.5s-5.607 12.5-12.5 12.5z"/><path d="m174.5 417c-15.164 0-27.5 12.336-27.5 27.5s12.336 27.5 27.5 27.5 27.5-12.336 27.5-27.5-12.336-27.5-27.5-27.5zm0 40c-6.893 0-12.5-5.607-12.5-12.5s5.607-12.5 12.5-12.5 12.5 5.607 12.5 12.5-5.607 12.5-12.5 12.5z"/><path d="m414.5 417c-15.164 0-27.5 12.336-27.5 27.5s12.336 27.5 27.5 27.5 27.5-12.336 27.5-27.5-12.336-27.5-27.5-27.5zm0 40c-6.893 0-12.5-5.607-12.5-12.5s5.607-12.5 12.5-12.5 12.5 5.607 12.5 12.5-5.607 12.5-12.5 12.5z"/></g></g></svg>