<svg height="512" viewBox="0 0 512 512" width="512" xmlns="http://www.w3.org/2000/svg"><g><g><g><rect fill="#a0815c" height="144" rx="8" width="144" x="40" y="248"/><path d="m136 312-24-16-24 16v-64h48z" fill="#ffda44"/><path d="m64 344h24v24h-24z" fill="#e0e0e2"/></g><g><rect fill="#a0815c" height="144" rx="8" width="144" x="80" y="104"/><path d="m176 168-24-16-24 16v-64h48z" fill="#ffda44"/><path d="m104 200h24v24h-24z" fill="#e0e0e2"/></g><g><rect fill="#a0815c" height="144" rx="8" width="144" x="184" y="248"/><path d="m280 312-24-16-24 16v-64h48z" fill="#ffda44"/><path d="m208 344h24v24h-24z" fill="#e0e0e2"/></g><path d="m384 56v368h-368v-32h336v-336z" fill="#57565c"/><g fill="#2d2d30"><circle cx="64" cy="464" r="32"/><circle cx="328" cy="464" r="32"/><path d="m384 56h96a16 16 0 0 1 16 16 16 16 0 0 1 -16 16h-96a0 0 0 0 1 0 0v-32a0 0 0 0 1 0 0z"/></g></g><g><path d="m88 336h-24a8 8 0 0 0 -8 8v24a8 8 0 0 0 8 8h24a8 8 0 0 0 8-8v-24a8 8 0 0 0 -8-8zm-8 24h-8v-8h8z"/><path d="m136 336h-24a8 8 0 0 0 0 16h24a8 8 0 0 0 0-16z"/><path d="m120 360h-8a8 8 0 0 0 0 16h8a8 8 0 0 0 0-16z"/><path d="m136 200a8 8 0 0 0 -8-8h-24a8 8 0 0 0 -8 8v24a8 8 0 0 0 8 8h24a8 8 0 0 0 8-8zm-16 16h-8v-8h8z"/><path d="m152 208h24a8 8 0 0 0 0-16h-24a8 8 0 0 0 0 16z"/><path d="m152 232h8a8 8 0 0 0 0-16h-8a8 8 0 0 0 0 16z"/><path d="m232 336h-24a8 8 0 0 0 -8 8v24a8 8 0 0 0 8 8h24a8 8 0 0 0 8-8v-24a8 8 0 0 0 -8-8zm-8 24h-8v-8h8z"/><path d="m280 336h-24a8 8 0 0 0 0 16h24a8 8 0 0 0 0-16z"/><path d="m264 360h-8a8 8 0 0 0 0 16h8a8 8 0 0 0 0-16z"/><path d="m480 48h-128a8 8 0 0 0 -8 8v328h-8v-128a16.021 16.021 0 0 0 -16-16h-88v-128a16.021 16.021 0 0 0 -16-16h-128a16.021 16.021 0 0 0 -16 16v128h-24a16.021 16.021 0 0 0 -16 16v128h-16a8 8 0 0 0 -8 8v32a8 8 0 0 0 8 8h24.03a40 40 0 1 0 47.94 0h216.06a40 40 0 1 0 47.94 0h32.03a8 8 0 0 0 8-8v-328h88a24 24 0 0 0 0-48zm-240 208h32v41.05l-11.56-7.71a8.026 8.026 0 0 0 -8.88 0l-11.56 7.71zm-11.77 63.05a7.993 7.993 0 0 0 8.21-.39l19.56-13.04 19.56 13.04a8.026 8.026 0 0 0 4.44 1.34 8.015 8.015 0 0 0 8-8v-56h32l.01 128h-128.01v-128h32v56a7.98 7.98 0 0 0 4.23 7.05zm-92.23-207.05h32v41.05l-11.56-7.71a8.026 8.026 0 0 0 -8.88 0l-11.56 7.71zm-48 0h32v56a8.009 8.009 0 0 0 12.44 6.66l19.56-13.04 19.56 13.04a8.026 8.026 0 0 0 4.44 1.34 8.015 8.015 0 0 0 8-8v-56h32l.01 128h-128.01zm40 144v41.05l-11.56-7.71a8.026 8.026 0 0 0 -8.88 0l-11.56 7.71v-41.05zm-80 0h32v56a8.009 8.009 0 0 0 12.44 6.66l19.56-13.04 19.56 13.04a8.026 8.026 0 0 0 4.44 1.34 8.015 8.015 0 0 0 8-8v-56h32v128h-128zm40 208a24 24 0 1 1 -24-24 24.032 24.032 0 0 1 24 24zm264 0a24 24 0 1 1 -24-24 24.032 24.032 0 0 1 24 24zm24-48h-352v-16h328a8 8 0 0 0 8-8v-328h16zm104-336h-88v-16h88a8 8 0 0 1 0 16z"/></g></g></svg>